<?xml version="1.0" encoding="utf-8"?>
<!DOCTYPE svg PUBLIC "-//W3C//DTD SVG 1.0//EN" "http://www.w3.org/TR/2001/REC-SVG-20010904/DTD/svg10.dtd">
<svg version="1.0" xmlns="http://www.w3.org/2000/svg" width="1436px" height="1675px" viewBox="0 0 1436 1675" preserveAspectRatio="xMidYMid meet">
 <g fill="#fab005">
  <path d="M 662.65 1611.16 c -80.18 -29.47 -186.08 -87.66 -258.03 -141.95 -61.33 -46.22 -131.93 -116.82 -176.51 -176.06 -39.49 -52.65 -77.18 -116.53 -99.17 -168.28 -20.94 -49.36 -27.67 -68.51 -38.29 -109.20 -13.61 -52.65 -20.04 -88.55 -25.88 -147.34 -2.54 -24.98 -2.69 -48.32 -2.69 -317.12 0 -319.81 -0.75 -294.53 8.83 -318.16 8.23 -20.19 25.58 -41.43 43.23 -52.65 23.48 -14.96 119.52 -47.87 203.73 -69.71 79.28 -20.64 191.47 -39.19 264.16 -43.53 39.04 -2.39 121.01 -1.05 138.96 2.24 101.57 18.85 183.84 66.86 243.82 142.25 20.19 25.43 39.34 57.44 53.40 89.60 l 7.78 18.10 -4.04 0.45 c -2.99 0.30 -7.93 -2.09 -17.95 -8.68 -7.63 -5.09 -17.50 -10.77 -21.84 -12.86 -9.42 -4.34 -29.32 -9.57 -36.20 -9.57 -5.24 0 -7.33 -1.79 -18.10 -14.96 -2.99 -3.74 -8.83 -9.57 -12.71 -13.01 -6.28 -5.53 -8.23 -6.43 -13.91 -6.43 -7.18 0 -24.53 -4.04 -26.92 -6.13 -0.75 -0.75 -2.54 -1.35 -3.89 -1.35 -1.35 0 -4.49 -1.05 -6.73 -2.24 -2.39 -1.20 -5.83 -2.24 -7.63 -2.24 -1.94 0 -3.44 -0.60 -3.44 -1.50 0 -0.90 -4.19 -1.50 -9.72 -1.50 -5.53 0 -9.72 -0.60 -9.72 -1.50 0 -0.75 -1.35 -1.50 -2.99 -1.50 -2.69 0 -2.99 -1.05 -2.99 -10.32 l 0 -10.32 6.13 -1.05 c 4.04 -0.75 5.68 -1.50 4.64 -2.54 -1.50 -1.50 -33.36 -12.71 -42.18 -14.66 -19.75 -4.64 -26.78 -5.83 -42.03 -7.48 -9.42 -0.90 -24.38 -1.50 -33.51 -1.20 l -16.45 0.45 -0.15 15.26 -0.15 15.41 24.53 0 c 23.04 0 24.38 0.15 24.38 2.84 0 2.69 -1.79 2.99 -30.22 3.74 -40.54 1.05 -59.38 3.29 -83.02 10.02 -43.98 12.27 -102.61 49.81 -120.26 76.74 -8.53 12.86 -11.52 24.38 -14.06 53.70 -2.54 29.62 -5.98 53.10 -9.12 64.32 -1.20 4.34 -7.63 18.85 -14.06 32.46 -12.27 25.43 -19.45 46.67 -19.89 58.19 l -0.30 6.58 14.21 4.34 c 20.79 6.13 18.70 6.73 27.52 -7.78 10.17 -16.90 16.01 -23.93 26.48 -32.16 26.33 -20.64 62.08 -27.07 93.34 -16.45 16.60 5.53 26.78 11.67 38.29 23.04 8.53 8.53 23.78 29.17 25.58 34.85 0.60 1.50 2.99 1.50 11.37 0 14.21 -2.39 28.87 -2.24 39.94 0.45 7.03 1.65 9.27 1.79 10.17 0.30 0.60 -1.05 3.59 -5.98 6.73 -11.22 18.70 -31.41 48.91 -50.41 83.32 -52.20 19.30 -1.05 32.76 1.79 50.71 10.62 19.45 9.57 32.61 21.99 43.83 41.58 l 3.29 5.53 -18.85 0.45 c -18.70 0.45 -18.85 0.45 -21.99 -3.44 -4.64 -5.68 -17.65 -14.66 -26.33 -17.95 -9.72 -3.74 -36.95 -4.04 -47.27 -0.45 -16.16 5.53 -31.41 19 -38.59 34.10 -4.94 10.47 -8.98 28.27 -7.78 35.15 l 0.75 5.09 -17.20 -1.05 c -20.19 -1.20 -21.54 -1.65 -21.54 -6.13 0 -7.33 -3.59 -8.68 -21.39 -7.78 -8.98 0.30 -16.90 1.35 -17.80 2.24 -0.90 0.90 -2.54 7.18 -3.74 14.06 -4.64 26.92 -15.26 47.42 -33.66 64.92 -12.42 11.67 -27.07 20.04 -41.73 23.63 -19 4.64 -47.42 2.24 -66.71 -5.53 -32.31 -13.16 -59.24 -48.61 -62.68 -82.72 -0.60 -5.24 -1.79 -10.17 -2.69 -10.92 -1.50 -1.35 -27.07 -9.12 -29.62 -9.12 -1.79 0 -1.50 27.82 0.45 41.43 6.43 48.02 28.12 93.19 59.53 124.75 8.68 8.68 17.35 16.30 19.30 16.90 2.69 0.90 5.39 -0.45 13.61 -7.03 19.15 -15.56 40.24 -27.67 62.23 -35.90 10.02 -3.74 43.08 -13.01 46.67 -13.01 1.05 0 1.94 5.83 2.69 17.20 l 1.05 17.20 7.33 0 c 7.03 0 7.33 0.15 7.33 4.34 0 4.19 -0.15 4.34 -4.49 2.69 -8.23 -3.14 -37.25 4.34 -60.43 15.41 -17.95 8.68 -29.92 17.05 -45.47 32.01 -14.06 13.61 -22.14 24.68 -29.32 40.54 -5.24 11.67 -7.78 14.21 -13.76 14.21 -12.56 0 -17.20 -5.53 -17.20 -20.49 0 -7.48 1.05 -13.16 3.89 -20.94 l 4.04 -10.77 -21.54 -21.39 c -21.39 -21.24 -34.70 -38.29 -43.68 -56.09 -4.04 -8.08 -7.78 -10.02 -11.22 -5.98 -0.90 1.20 -2.99 8.53 -4.49 16.30 -1.65 7.78 -4.94 21.84 -7.33 31.26 -26.92 103.36 -8.08 197 54.45 272.24 27.67 33.36 71.65 66.42 110.24 83.02 8.23 3.59 9.87 4.94 9.42 7.18 -0.45 1.65 0.15 7.33 1.35 12.71 3.14 15.41 4.34 30.07 2.39 30.07 -8.68 0 -75.09 -33.96 -91.25 -46.52 -4.19 -3.29 -9.57 -3.74 -11.97 -0.90 -1.65 2.09 4.19 14.66 73.30 154.67 12.27 24.83 22.29 45.62 22.29 46.07 0 2.69 57.44 115.63 61.93 121.76 8.83 11.82 26.48 23.04 49.96 31.56 11.52 4.19 11.52 4.19 46.52 -11.07 103.51 -45.47 184.88 -100.37 260.57 -175.91 62.83 -62.83 112.34 -133.73 146.74 -210.46 20.49 -45.92 36.80 -103.51 45.32 -160.50 6.73 -44.28 6.73 -43.98 6.73 -325.49 l 0 -267.75 -5.53 -2.69 c -17.20 -8.23 -63.12 -23.04 -127.44 -40.99 l -26.03 -7.18 -8.08 -15.71 c -16.75 -32.16 -47.57 -73.74 -75.09 -101.27 -18.40 -18.40 -37.69 -33.96 -62.23 -50.26 -27.67 -18.40 -25.88 -16.90 -23.04 -18.10 3.89 -1.50 82.27 8.98 123.26 16.45 20.64 3.74 50.86 9.87 67.31 13.46 86.31 19.30 211.81 59.68 241.88 77.93 24.08 14.66 42.63 39.34 51.46 68.66 2.69 8.53 2.84 23.63 3.29 287.95 0.15 153.47 0 281.22 -0.45 283.91 -0.45 2.84 -1.79 4.79 -2.99 4.79 -1.79 0 -2.24 -3.14 -2.24 -17.20 0 -15.86 -1.50 -21.54 -3.74 -14.36 -0.45 1.50 -2.09 4.19 -3.59 5.98 -2.24 2.54 -2.84 6.88 -3.74 24.53 -3.14 67.46 -17.20 141.21 -39.49 207.47 -24.98 74.19 -55.65 135.22 -103.21 205.68 -80.03 118.32 -196.70 225.72 -325.64 299.77 -7.33 4.19 -14.51 8.38 -15.71 9.12 -9.57 5.68 -67.31 32.91 -83.77 39.34 -35 13.91 -61.33 22.14 -89.15 27.97 -11.82 2.39 -21.84 4.49 -21.99 4.34 -0.15 0 -7.33 -2.54 -16.01 -5.68 z  m -413 -651.88 c 16.60 -39.49 64.17 -87.51 110.84 -111.59 l 12.27 -6.43 0.60 -20.64 c 0.75 -23.04 4.64 -47.12 13.91 -87.66 3.29 -14.36 6.13 -27.67 6.13 -29.47 0 -2.54 -1.94 -4.34 -7.78 -7.33 -29.62 -14.96 -51.16 -42.03 -59.53 -74.64 -8.83 -34.55 2.39 -70.90 28.27 -90.80 l 5.09 -3.89 -3.14 -20.04 c -6.88 -41.88 -7.78 -61.18 -4.04 -82.87 11.97 -68.06 63.27 -124.90 124.15 -137.47 l 11.97 -2.39 18.70 -18.40 c 10.32 -10.02 23.78 -21.84 29.92 -26.18 l 11.22 -7.93 -15.71 1.05 c -34.40 2.09 -71.35 8.53 -143.15 24.53 -22.89 5.09 -62.97 15.41 -75.99 19.45 -4.94 1.65 -20.79 6.43 -35.15 10.77 -27.37 8.08 -51.61 16.75 -54.90 19.60 -1.65 1.20 -1.94 50.71 -1.94 265.06 0 160.20 0.60 270.45 1.50 281.37 2.84 33.66 5.39 49.96 14.21 91.54 2.84 13.31 5.24 24.53 5.24 24.98 0 0.45 0.60 0.90 1.35 0.90 0.60 0 3.44 -5.09 5.98 -11.52 z  m 154.97 -300.66 c 4.94 -12.42 12.27 -98.72 8.68 -102.32 -1.20 -1.20 -5.83 -1.35 -14.81 -0.60 l -13.01 1.05 -8.23 7.63 c -9.72 9.27 -11.67 12.86 -13.61 24.68 -2.99 18.55 4.49 43.38 16.90 56.09 5.39 5.39 19.89 16.01 21.99 16.01 0.60 0 1.50 -1.20 2.09 -2.54 z  M661.16 573.80 C 661.16 535.66 630.19 504.84 592.05 504.84 553.91 504.84 522.94 535.66 522.94 573.80 522.94 612.09 553.91 642.91 592.05 642.91 630.19 642.91 661.16 612.09 661.16 573.80 Z M610.45 640.82  m -186.38 -134.77 c 1.65 -11.67 9.42 -31.41 21.84 -56.24 14.96 -29.77 17.20 -38.59 19.30 -77.33 0.90 -16.01 1.94 -30.96 2.39 -33.21 0.75 -3.89 0.45 -4.19 -4.04 -4.19 -5.68 0 -22.29 10.47 -34.10 21.54 -25.28 23.93 -40.84 65.97 -38.44 104.11 0.90 14.36 5.98 50.41 7.33 51.76 1.35 1.35 21.39 2.84 22.89 1.79 1.05 -0.75 2.24 -4.34 2.84 -8.23 z "/>
  <path d="M 1045.59 454.73 c 0 -13.91 0.15 -14.96 2.99 -14.96 2.84 0 2.99 1.05 2.99 14.96 0 13.91 -0.15 14.96 -2.99 14.96 -2.84 0 -2.99 -1.05 -2.99 -14.96 z "/>
 </g>
 <g fill="#fab005">
  <path d="M 697.06 1621.63 c -5.39 -1.50 -12.86 -3.59 -16.75 -4.64 -4.04 -1.05 -7.18 -2.39 -7.18 -3.14 0 -0.75 0.30 -1.35 0.75 -1.35 0.30 0 10.47 -2.09 22.29 -4.49 27.82 -5.83 54.15 -14.06 89.15 -27.97 16.45 -6.43 74.19 -33.66 83.77 -39.34 1.20 -0.75 8.38 -4.94 15.71 -9.12 186.38 -107.10 338.21 -276.43 412.25 -459.82 32.16 -79.88 52.20 -170.23 56.09 -253.24 0.60 -13.01 1.79 -22.14 2.84 -23.19 4.94 -5.09 5.98 -15.71 1.35 -13.91 -2.39 0.90 -2.84 -1.50 -0.60 -2.84 0.90 -0.60 1.05 -1.79 0.45 -2.69 -0.45 -1.05 0.45 -0.45 2.24 1.05 3.59 3.14 4.19 2.39 1.65 -2.54 -1.20 -2.39 -0.15 -1.79 3.74 1.79 2.99 2.84 5.39 6.13 5.39 7.33 0 1.05 0.75 1.50 1.50 1.05 2.39 -1.50 1.79 61.03 -0.75 88.25 -10.47 109.05 -36.95 202.39 -84.36 296.77 -27.82 55.35 -67.76 113.83 -116.68 170.67 -19.60 22.89 -92.89 97.23 -95.73 97.23 -2.54 0 -11.67 7.18 -26.03 20.64 -6.43 5.83 -13.76 11.67 -16.45 12.86 -2.69 1.05 -7.78 4.64 -11.52 7.93 -11.07 9.57 -18.25 14.81 -26.63 19.30 -4.34 2.39 -10.62 6.58 -14.21 9.27 -10.17 7.93 -35.60 24.23 -37.69 24.23 -1.05 0 -2.69 1.05 -3.74 2.24 -1.05 1.20 -4.64 3.59 -8.08 5.24 -6.88 3.14 -21.99 11.37 -41.43 22.59 -7.18 4.04 -13.31 7.33 -13.91 7.33 -0.60 0 -11.67 5.09 -24.53 11.37 -27.67 13.31 -40.24 19.15 -52.65 24.08 -2.09 0.90 -7.48 3.14 -11.97 4.94 -4.49 1.79 -9.57 3.89 -11.22 4.64 -1.65 0.60 -5.68 1.50 -8.98 2.09 -3.29 0.60 -10.02 2.69 -15.11 4.64 -7.78 3.14 -11.52 3.59 -26.18 3.44 -11.52 0 -20.19 -0.90 -26.78 -2.69 z "/>
  <path d="M 730.27 1298.08 c -2.09 -2.69 -53.55 -105.90 -59.53 -119.37 l -4.94 -11.07 -16.75 -3.29 c -9.12 -1.94 -23.63 -5.53 -32.16 -8.23 l -15.41 -4.79 -0.90 -6.88 c -0.60 -3.74 -2.24 -13.76 -3.89 -22.29 -1.50 -8.53 -2.84 -15.71 -2.84 -16.16 0 -1.50 5.53 -0.30 19.15 4.49 33.96 11.82 63.87 17.20 102.76 18.40 37.40 1.20 63.12 -2.99 104.41 -16.60 40.84 -13.46 78.83 -37.25 113.83 -71.05 34.10 -33.06 57.74 -71.20 73.30 -118.32 10.32 -31.26 13.46 -52.50 13.61 -91.25 0 -36.20 -0.30 -38.59 -11.97 -89 -4.49 -18.85 -8.53 -36.95 -9.12 -40.09 -0.90 -5.09 -1.35 -5.68 -4.79 -5.24 -2.99 0.30 -5.24 2.99 -11.07 13.16 -13.31 23.19 -32.31 45.47 -55.05 64.47 l -8.23 6.88 4.19 10.17 c 5.68 13.61 7.03 22.29 5.39 31.41 -2.54 13.91 -14.06 20.19 -22.89 12.42 -2.09 -1.94 -7.18 -10.32 -11.52 -18.85 -16.16 -32.76 -39.49 -54.60 -75.54 -71.50 -27.67 -13.01 -50.26 -17.20 -58.94 -11.07 -2.39 1.65 -8.83 4.94 -14.51 7.03 -8.98 3.59 -12.27 4.04 -28.12 4.19 l -17.95 0 -13.76 -6.58 c -7.63 -3.59 -13.91 -7.18 -13.91 -7.93 0 -0.60 -3.29 -1.20 -7.48 -1.20 -6.13 0 -7.48 -0.45 -7.48 -2.54 0 -1.50 -0.45 -10.17 -0.90 -19.30 l -0.90 -16.60 4.79 -1.05 c 2.69 -0.45 8.23 -0.90 12.42 -0.90 6.58 0 8.53 0.75 14.36 5.83 10.32 8.53 18.55 12.27 29.77 13.01 9.42 0.75 10.62 0.45 18.25 -4.19 18.10 -10.92 19.75 -25.28 9.12 -77.48 -5.68 -27.07 -9.42 -56.84 -7.33 -56.84 0.45 0 2.24 1.20 4.04 2.84 2.24 1.94 6.73 2.99 16.60 3.74 7.33 0.60 14.06 0.75 14.81 0.15 0.90 -0.45 1.94 1.05 2.39 3.29 3.89 20.19 8.38 30.07 19 41.58 13.31 14.66 35.30 22.89 56.99 21.24 8.08 -0.45 12.86 -1.94 22.74 -6.88 28.27 -14.06 42.48 -40.69 38.14 -71.80 -1.65 -11.97 -8.23 -28.27 -13.76 -34.10 -1.79 -1.94 -2.84 -3.74 -2.54 -4.04 0.45 -0.45 8.68 -0.90 18.55 -1.05 l 17.95 -0.30 2.99 4.49 c 1.65 2.54 3.74 5.68 4.49 7.03 1.35 2.09 3.29 1.79 18.40 -2.99 10.32 -3.29 16.75 -5.98 16.75 -7.33 0 -1.05 -1.94 -9.87 -4.49 -19.45 -3.44 -13.61 -7.03 -23.04 -16.30 -41.73 -6.88 -13.61 -13.31 -28.87 -14.96 -35.30 -1.50 -6.13 -4.34 -27.37 -5.98 -47.12 -5.09 -55.35 -6.13 -58.94 -21.39 -76.44 -17.65 -20.19 -42.03 -37.84 -74.49 -53.55 -39.19 -19.15 -69.86 -26.33 -118.02 -27.82 -22.59 -0.60 -29.17 -1.20 -29.77 -2.84 -0.45 -1.35 0.15 -1.65 2.39 -1.05 2.24 0.75 3.59 0.15 4.79 -2.09 2.24 -4.19 2.39 -22.14 0.15 -24.38 -3.44 -3.44 -1.94 -7.93 3.29 -9.57 4.79 -1.35 38.59 -1.50 50.56 0 3.59 0.45 10.62 1.35 15.56 1.94 4.94 0.45 13.31 1.94 18.70 3.14 5.39 1.05 11.22 2.39 13.16 2.84 17.50 3.59 67.31 23.93 73 29.62 2.84 2.99 2.09 2.99 -2.99 0.30 -2.09 -1.05 -5.53 -1.79 -7.63 -1.50 -2.09 0.15 -3.44 -0.15 -2.99 -0.90 0.75 -1.35 -11.22 -2.54 -16.90 -1.79 -1.79 0.30 -2.99 1.20 -2.39 1.94 0.45 0.90 -0.75 1.20 -2.99 0.75 -2.84 -0.45 -3.89 0 -3.89 1.65 0 1.50 0.90 1.94 2.39 1.35 1.20 -0.45 1.79 -0.30 1.35 0.45 -0.45 0.75 0.75 2.54 2.54 3.74 1.79 1.35 2.54 2.39 1.65 2.39 -1.05 0 -2.24 -0.60 -2.69 -1.50 -1.50 -2.39 -5.24 -1.79 -5.24 0.90 0 1.20 0.60 1.94 1.35 1.35 0.75 -0.45 2.39 0.30 3.74 1.50 1.50 1.65 4.79 2.24 10.17 2.09 10.92 -0.30 11.97 -0.15 10.77 1.79 -0.75 1.35 0.15 1.50 2.99 0.75 2.09 -0.45 3.89 -0.45 3.89 0.15 0 1.79 7.48 4.79 9.57 4.04 1.05 -0.45 2.69 0.30 3.74 1.50 1.79 2.09 5.39 3.14 13.91 4.49 1.50 0.15 3.14 0.75 3.59 1.35 1.65 1.65 9.57 1.20 9.57 -0.45 0 -2.09 2.84 -1.94 5.39 0.30 1.20 1.05 5.39 4.64 9.27 7.93 4.04 3.29 9.72 8.98 12.71 12.71 10.77 13.16 12.86 14.96 18.10 14.96 6.73 0 26.78 5.24 35.90 9.42 4.19 1.94 13.76 7.48 21.09 12.27 7.48 4.94 13.91 8.83 14.51 8.98 0.60 0 2.99 2.69 5.39 5.98 2.39 3.29 7.33 8.68 10.77 11.97 14.96 14.36 30.81 40.69 37.99 63.12 11.82 37.55 12.56 58.49 3.74 110.99 l -3.14 18.55 8.98 7.93 c 11.07 9.87 16.90 18.85 22.14 34.25 3.74 10.47 4.19 14.21 4.19 30.66 0.15 21.99 -2.09 32.16 -11.22 50.41 -7.48 15.56 -27.07 36.95 -39.19 42.93 -4.19 2.09 -10.02 5.24 -12.86 6.88 -6.13 3.89 -6.28 1.65 4.34 52.35 9.42 45.47 11.67 70.60 9.27 103.96 -4.34 57.59 -21.09 118.77 -46.82 169.93 -8.68 17.50 -35.60 62.97 -45.92 77.63 -18.10 25.73 -75.54 87.96 -97.53 105.46 -5.24 4.19 -13.61 11.22 -18.70 15.71 -16.75 14.66 -22.89 19.45 -25.13 19.45 -1.20 0 -3.74 1.20 -5.68 2.84 -1.94 1.50 -8.68 6.28 -14.81 10.47 -6.13 4.19 -14.51 10.47 -18.70 13.76 -4.04 3.14 -14.81 9.42 -23.93 13.91 -8.98 4.34 -19.15 9.72 -22.29 11.97 -6.28 4.19 -10.17 4.94 -12.56 2.09 z  m 178.75 -557.20 c 39.34 -34.55 66.12 -91.54 71.05 -150.93 1.05 -11.82 1.35 -21.99 0.75 -22.59 -1.65 -1.50 -21.84 2.24 -27.97 5.24 -4.94 2.39 -5.24 2.99 -7.03 15.11 -3.59 22.74 -12.86 40.69 -30.37 58.34 -20.34 20.49 -44.88 29.77 -74.79 27.97 -17.35 -0.90 -26.33 -2.99 -39.94 -9.12 -8.53 -3.74 -14.21 -4.49 -14.06 -1.79 0.15 0.60 0.15 7.63 0.15 15.71 l 0 14.51 19 4.94 c 30.22 7.78 59.68 23.48 80.48 42.78 4.94 4.49 9.87 8.23 10.92 8.38 1.20 0 6.43 -3.89 11.82 -8.53 z  m 132.83 -83.62 c 17.35 -11.52 27.67 -27.82 30.66 -48.17 2.99 -21.69 -2.69 -38.89 -16.45 -49.36 -6.43 -4.94 -7.03 -5.09 -18.25 -4.49 -6.28 0.30 -12.27 1.20 -13.31 2.24 -3.44 3.44 3.44 88.25 8.38 101.87 0.90 2.54 2.24 2.24 8.98 -2.09 z  m -3.44 -143.90 c 1.35 -1.35 3.29 -12.86 7.33 -43.98 5.09 -39.34 -10.47 -84.81 -38.89 -113.23 -10.62 -10.62 -30.96 -24.38 -35.15 -23.78 -2.84 0.45 -3.14 1.20 -2.69 11.67 0.60 19.45 3.44 49.66 5.68 62.97 2.84 16.75 6.28 26.92 15.41 43.68 9.12 17.05 17.05 36.20 20.19 48.91 4.34 17.50 3.89 17.05 16.16 16.01 5.83 -0.45 11.22 -1.50 11.97 -2.24 z "/>
  <path d="M 699.30 845.59 c -27.82 -3.29 -57.44 -13.91 -67.16 -24.08 -2.84 -3.14 -4.49 -6.58 -4.94 -11.07 -1.35 -12.12 3.74 -18.40 16.30 -20.04 6.13 -0.90 8.68 -0.15 21.69 5.83 22.59 10.47 29.47 12.12 52.80 12.12 23.19 0.15 33.06 -1.94 54.30 -11.22 20.94 -9.27 32.76 -7.48 36.95 5.39 5.39 16.45 -17.35 34.25 -53.55 41.88 -10.02 2.09 -43.23 2.84 -56.39 1.20 z "/>
  <path d="M620.77 573.50 C 620.77 588.01 608.95 599.68 594.44 599.68 579.93 599.68 568.27 588.01 568.27 573.50 568.27 558.99 579.93 547.18 594.44 547.18 608.95 547.18 620.77 558.99 620.77 573.50 Z M586.22 598.33 "/>
  <path d="M869.08 573.05 C 869.08 587.56 857.26 599.38 842.75 599.38 828.24 599.38 816.58 587.56 816.58 573.05 816.58 558.54 828.24 546.88 842.75 546.88 857.26 546.88 869.08 558.54 869.08 573.05 Z M834.08 597.59 "/>
  <path d="M 712.76 414.79 c -1.65 -0.30 -11.07 -3.14 -20.94 -6.13 -16.75 -5.09 -19.30 -5.53 -36.65 -5.39 -13.46 0 -21.39 0.75 -28.42 2.84 -16.30 4.49 -20.19 4.64 -24.53 0.15 -4.49 -4.34 -5.24 -11.82 -1.65 -16.90 3.29 -4.79 19.30 -9.27 38.89 -11.07 20.64 -2.09 30.22 -1.05 55.50 5.39 10.92 2.84 21.99 5.24 24.38 5.24 2.39 0 10.32 -1.79 17.50 -3.89 29.17 -8.38 47.27 -10.02 69.26 -5.83 23.19 4.49 31.56 9.27 31.56 18.10 0 2.99 -1.35 6.58 -3.59 9.12 -3.59 4.04 -3.74 4.04 -11.52 2.24 -4.49 -0.90 -11.82 -2.84 -16.30 -4.19 -15.86 -4.49 -42.78 -1.35 -72.10 8.53 -8.23 2.69 -14.96 3.29 -21.39 1.79 z "/>
  <path d="M 631.24 231.11 c -1.05 -1.35 -1.35 -2.24 -0.60 -2.09 0.75 0.15 2.39 0.15 3.59 -0.15 1.65 -0.15 1.35 -0.60 -0.75 -1.50 -2.39 -1.05 -2.39 -1.35 -0.60 -1.35 1.35 -0.15 2.84 -1.20 3.44 -2.39 0.90 -2.54 3.89 -2.99 3.89 -0.60 0 0.75 -0.75 1.05 -1.79 0.45 -1.05 -0.75 -1.35 -0.30 -0.75 1.35 0.45 1.35 -0.30 3.89 -1.65 5.68 -2.39 2.84 -2.84 2.99 -4.79 0.60 z "/>
  <path d="M 641.26 216.15 c 0.90 -2.54 3.74 -2.24 4.64 0.45 0.30 1.05 -0.75 1.79 -2.54 1.79 -2.09 0 -2.84 -0.75 -2.09 -2.24 z "/>
 </g>
</svg>